<svg fill="none" height="480" viewBox="0 0 480 480" width="480" xmlns="http://www.w3.org/2000/svg"><path d="m0 0h480v480h-480z" fill="#fff"/><path d="m356.406 144.654h-56.777z" fill="#fff"/><path d="m356.406 144.654h-56.777" stroke="#505763" stroke-linecap="round" stroke-linejoin="round" stroke-width="2"/><path d="m290.502 144.654h-18.197" stroke="#8a92a3" stroke-linecap="round" stroke-linejoin="round" stroke-width="2"/><path d="m422.243 123.842v76.113z" fill="#fff"/><path d="m422.243 123.842v76.113" stroke="#a29c98" stroke-linecap="round" stroke-linejoin="round" stroke-width="2"/><path d="m409.95 121.521h-61.781c-1.867 0-3.38 1.514-3.38 3.38v83.865c0 1.867 1.513 3.381 3.38 3.381h58.017c2.225-.078 4.418-.547 6.479-1.386 0 0 9.634-4.316 9.634-11.347.002-6.504-4.902-11.962-11.369-12.653 0-1.86 0-4.913 0-6.761v-65.003c.066-1.161-.006-2.326-.214-3.47l.789.158c6.148 1.345 10.592 6.7 10.783 12.991l.067 35.403v6.76 17.398 6.76 5.037s0-7.516-11.267-9.273" fill="#f4f4f4"/><path d="m409.95 121.521h-61.781c-1.867 0-3.38 1.514-3.38 3.38v83.865c0 1.867 1.513 3.381 3.38 3.381h58.017c2.225-.078 4.418-.547 6.479-1.386 0 0 9.634-4.316 9.634-11.347.002-6.504-4.902-11.962-11.369-12.653 0-1.86 0-4.913 0-6.761v-65.003c.066-1.161-.006-2.326-.214-3.47l.789.158c6.148 1.345 10.592 6.7 10.783 12.991l.067 35.403v6.76 17.398 6.76 5.037s0-7.516-11.267-9.273" stroke="#505763" stroke-linecap="round" stroke-linejoin="round" stroke-width="2"/><path d="m369.51 151.2h-11.966v-11.955h6.344" fill="#fff"/><path d="m369.51 151.2h-11.966v-11.955h6.344" stroke="#505763" stroke-linecap="round" stroke-linejoin="round" stroke-width="2"/><path d="m378.073 146.4h22.321z" fill="#fff"/><path d="m378.073 146.4h22.321" stroke="#505763" stroke-linecap="round" stroke-linejoin="round" stroke-width="2"/><path d="m363.121 143.403 1.893 3.279 6.58-8.924" fill="#fff"/><g stroke-linecap="round" stroke-linejoin="round" stroke-width="2"><path d="m363.121 143.403 1.893 3.279 6.58-8.924" stroke="#505763"/><path d="m395.82 267.47c3.441 0 6.231-2.809 6.231-6.276 0-3.466-2.79-6.276-6.231-6.276s-6.231 2.81-6.231 6.276c0 3.467 2.79 6.276 6.231 6.276z" fill="#fbe7ba" stroke="#505763"/><path d="m443.37 246.547c3.441 0 6.231-2.81 6.231-6.277 0-3.466-2.79-6.276-6.231-6.276-3.442 0-6.231 2.81-6.231 6.276 0 3.467 2.789 6.277 6.231 6.277z" fill="#e7f6f6" stroke="#4a4a4a"/><path d="m443.37 288.394c3.441 0 6.231-2.809 6.231-6.276 0-3.466-2.79-6.276-6.231-6.276-3.442 0-6.231 2.81-6.231 6.276 0 3.467 2.789 6.276 6.231 6.276z" fill="#e7f6f6" stroke="#4a4a4a"/><path d="m437.183 240.27h-9.352c-.831-.006-1.63.319-2.222.902s-.927 1.378-.933 2.208v35.606c-.003.831.324 1.629.909 2.218.586.59 1.381.923 2.212.926h9.386" stroke="#4a4a4a"/><path d="m424.677 261.194h-22.615" stroke="#505763"/><path d="m22.603 241.792h-21.01413" stroke="#505763"/><path d="m100.361 241.792h-57.6003" stroke="#505763"/><path d="m62.8959 253.104-15.2338-11.594 15.2338-11.583z" fill="#fbe7ba" stroke="#505763"/><path d="m46.6596 253.104-15.2338-11.594 15.2338-11.583z" fill="#fbe7ba" stroke="#505763"/><path d="m337.251 328.8h21.014" stroke="#231f20"/><path d="m435.605 337.927h21.015" stroke="#8a92a3"/><path d="m394.231 337.927h31.369" stroke="#505763"/><path d="m421.701 326.614 15.223 11.583-15.223 11.595z" fill="#ffe48c" stroke="#505763"/><path d="m396.259 160.879h-303.2561v198.479h303.2561z" fill="#edece6" stroke="#645a53"/><path d="m398.355 359.301h-307.4478v11.448h307.4478z" fill="#edece6" stroke="#645a53"/><path d="m115.009 370.738h-70.9973" stroke="#505763"/><path d="m34.8847 370.738h-18.1972" stroke="#8a92a3"/><path d="m368.744 370.738h82.152" stroke="#505763"/><path d="m460.022 370.738h18.209" stroke="#8a92a3"/><path d="m382.445 173.397h-275.842v174.986h275.842z" fill="#fff" stroke="#645a53"/></g><path d="m381.442 331.662h-273.837v15.707h273.837z" fill="#e0dedd"/><path d="m381.42 174.434h-271.606v8.62h271.606z" fill="#b5e4b6"/><path d="m260.767 360.439h-37.781v5.724h37.781z" fill="#e0dedd"/><path d="m381.296 331.662h-273.691v-57.487l273.691-50.716z" fill="#f8f7f5"/><path d="m306.682 226.896h-127.584c-.622 0-1.126.504-1.126 1.127v39.042c0 .622.504 1.127 1.126 1.127h127.584c.622 0 1.126-.505 1.126-1.127v-39.042c0-.623-.504-1.127-1.126-1.127z" fill="#ec5252"/><path d="m234.447 256.761c1.512 0 3.042-.342 4.356-1.044v-6.048h-1.728v5.058c-.864.36-1.764.468-2.556.468-2.376 0-4.356-1.386-4.356-5.328 0-3.096 1.674-5.13 4.626-5.13 1.422 0 2.574.378 3.69 1.062l-.288-1.836c-1.008-.594-2.286-.81-3.564-.81-3.852 0-6.228 2.232-6.228 6.984 0 5.22 3.312 6.624 6.048 6.624zm13.196 0c3.438 0 6.102-2.322 6.102-6.786 0-4.428-2.232-6.822-5.868-6.822-3.69 0-6.066 2.538-6.066 6.912 0 4.446 2.124 6.696 5.832 6.696zm.162-1.602c-2.592 0-4.23-1.62-4.23-5.13 0-3.474 1.71-5.274 4.212-5.274s4.194 1.818 4.194 5.274c0 3.42-1.746 5.13-4.176 5.13z" fill="#fff"/><path d="m244.857 295.211c-2.671-4.507-2.783-5.341-4.226-6.963-1.769-2.006-3.549-5.33-6.377-6.558-.834-.36-1.375-.755-1.217-1.127l.147-.304c1.273-1.96 2.478-1.848 4.135-1.386 1.121.43 2.065 1.224 2.681 2.254-.538-.954-.919-1.989-1.126-3.065l-.507-2.051c-.09-.372-2.558-9.757-1.826-10.85.305-.451 2.4-1.127 2.986-.609.395.338 3.471 9.972 3.662 10.749.192.778.519 0 .778-.078 3.864-.361 8.743-.316 10.929.507 1.24.473 1.972.495 2.581 2.94l.653 2.626c1.059 4.293-.597 5.025.732 10.411z" fill="#fff" stroke="#645a53" stroke-linecap="round" stroke-linejoin="round" stroke-width="2"/><path d="m396.259 160.879h-303.2561v198.479h303.2561z" fill="#e8e9eb" stroke="#505763" stroke-linecap="round" stroke-linejoin="round" stroke-width="2"/><path d="m398.355 359.301h-307.4478v11.448h307.4478z" fill="#dedfe0" stroke="#505763" stroke-linecap="round" stroke-linejoin="round" stroke-width="2"/><path d="m382.445 173.397h-275.842v174.986h275.842z" fill="#fff" stroke="#505763" stroke-linecap="round" stroke-linejoin="round" stroke-width="2"/><path d="m381.442 331.662h-273.837v15.707h273.837z" fill="#e8e9eb"/><path d="m381.42 174.434h-271.606v8.62h271.606z" fill="#e8e9eb"/><path d="m381.296 331.662h-273.691v-57.487l273.691-50.716z" fill="#f8f7f5"/><path d="m306.682 226.896h-127.584c-.622 0-1.126.504-1.126 1.127v39.042c0 .622.504 1.127 1.126 1.127h127.584c.622 0 1.126-.505 1.126-1.127v-39.042c0-.623-.504-1.127-1.126-1.127z" fill="#ec5252"/><path d="m234.449 246.668h4.368v6.249c-.679.216-1.371.381-2.074.492s-1.517.167-2.443.167c-1.946 0-3.46-.577-4.544-1.732-1.084-1.16-1.626-2.783-1.626-4.869 0-1.336.266-2.505.8-3.507.539-1.007 1.312-1.775 2.32-2.302 1.008-.534 2.188-.8 3.542-.8 1.371 0 2.648.252 3.832.756l-.58 1.318c-1.16-.492-2.276-.738-3.349-.738-1.564 0-2.786.466-3.665 1.397-.879.932-1.318 2.224-1.318 3.876 0 1.735.422 3.05 1.266 3.947.849.896 2.094 1.344 3.735 1.344.891 0 1.761-.102 2.61-.307v-3.955h-2.874zm18.615.29c0 2.056-.521 3.673-1.564 4.851-1.037 1.178-2.481 1.767-4.333 1.767-1.893 0-3.355-.577-4.386-1.732-1.025-1.16-1.538-2.795-1.538-4.904 0-2.092.516-3.712 1.547-4.86 1.031-1.155 2.496-1.732 4.395-1.732 1.845 0 3.287.586 4.324 1.758s1.555 2.789 1.555 4.852zm-10.239 0c0 1.74.369 3.061 1.108 3.964.744.896 1.822 1.344 3.234 1.344 1.424 0 2.499-.448 3.226-1.344.726-.897 1.089-2.218 1.089-3.964 0-1.729-.363-3.038-1.089-3.929-.721-.897-1.79-1.345-3.208-1.345-1.424 0-2.508.451-3.252 1.354-.739.896-1.108 2.203-1.108 3.92z" fill="#fff"/><path d="m244.857 295.211c-2.671-4.507-2.783-5.341-4.226-6.963-1.769-2.006-3.549-5.33-6.377-6.558-.834-.36-1.375-.755-1.217-1.127l.147-.304c1.273-1.96 2.478-1.848 4.135-1.386 1.121.43 2.065 1.224 2.681 2.254-.538-.954-.919-1.989-1.126-3.065l-.507-2.051c-.09-.372-2.558-9.757-1.826-10.85.305-.451 2.4-1.127 2.986-.609.395.338 3.471 9.972 3.662 10.749.192.778.519 0 .778-.078 3.864-.361 8.743-.316 10.929.507 1.24.473 1.972.495 2.581 2.94l.653 2.626c1.059 4.293-.597 5.025.732 10.411z" fill="#fff" stroke="#505763" stroke-linecap="round" stroke-linejoin="round" stroke-width="2"/><path d="m93.3409 334.242h30.5351c1.033.006 2.025-.403 2.752-1.137.727-.733 1.128-1.729 1.113-2.761v-49.375c.015-1.033-.386-2.028-1.113-2.761-.727-.734-1.719-1.144-2.752-1.138h-63.5266c-2.1935-.025-4.0055 1.707-4.0789 3.899v49.375c.0734 2.192 1.8854 3.924 4.0789 3.898h21.7014" fill="#b4e0e9"/><path d="m93.3409 334.242h30.5351c1.033.006 2.025-.403 2.752-1.137.727-.733 1.128-1.729 1.113-2.761v-49.375c.015-1.033-.386-2.028-1.113-2.761-.727-.734-1.719-1.144-2.752-1.138h-63.5266c-2.1935-.025-4.0055 1.707-4.0789 3.899v49.375c.0734 2.192 1.8854 3.924 4.0789 3.898h21.7014" stroke="#4a4a4a" stroke-linecap="round" stroke-linejoin="round" stroke-width="2"/><path d="m80.7891 330.423 3.8197 3.819-3.8197 3.82" stroke="#645a53" stroke-linecap="round" stroke-linejoin="round" stroke-width="2"/><path d="m38.8174 308.552h33.9267l2.3324-2.986 4.8226 6.355 5.9042-18.659 6.0056 24.811 4.7099-11.312 2.1859 3.38 7.1433-15.087 4.958 9.723 28.304.203" stroke="#505763" stroke-linecap="round" stroke-linejoin="round" stroke-width="2"/><path d="m68.7324 154.997c0-.822 0-1.577.0676-2.253 0-.789.0489-1.341.1465-1.859 2.3887-23.561 23.662-42.04 51.0195-42.04 28.89 0 51.234 20.687 51.234 46.197s-22.344 46.197-51.234 46.197v12.169s-48.7998-15.538-51.1209-55.526c-.1127-.947-.1127-1.916-.1127-2.885z" fill="#fbe7ba" stroke="#505763" stroke-linecap="round" stroke-linejoin="round" stroke-width="2"/><path d="m142.04 162.839c2.968 0 5.374-2.406 5.374-5.374 0-2.969-2.406-5.375-5.374-5.375-2.969 0-5.375 2.406-5.375 5.375 0 2.968 2.406 5.374 5.375 5.374z" fill="#fff" stroke="#505763" stroke-linecap="round" stroke-linejoin="round" stroke-width="2"/><path d="m119.966 162.839c2.969 0 5.375-2.406 5.375-5.374 0-2.969-2.406-5.375-5.375-5.375-2.968 0-5.374 2.406-5.374 5.375 0 2.968 2.406 5.374 5.374 5.374z" fill="#fff" stroke="#505763" stroke-linecap="round" stroke-linejoin="round" stroke-width="2"/><path d="m97.8932 162.839c2.9688 0 5.3748-2.406 5.3748-5.374 0-2.969-2.406-5.375-5.3748-5.375-2.9683 0-5.3746 2.406-5.3746 5.375 0 2.968 2.4063 5.374 5.3746 5.374z" fill="#fff" stroke="#505763" stroke-linecap="round" stroke-linejoin="round" stroke-width="2"/><path d="m386.592 305.837c0-.53 0-1.014 0-1.488 0 0 0-.09 0-.135 0-.375-.03-.729-.09-1.059-1.532-15.155-14.93-27.042-32.496-27.042-18.58 0-32.676 13.307-32.676 29.724s14.051 29.724 32.676 29.724v7.887s31.065-9.994 32.564-35.718c-.012-.654.022-1.251.022-1.893z" fill="#fbe7ba" stroke="#505763" stroke-linecap="round" stroke-linejoin="round" stroke-width="2"/><path d="m339.753 310.885c1.911 0 3.459-1.549 3.459-3.46 0-1.91-1.548-3.459-3.459-3.459-1.91 0-3.459 1.549-3.459 3.459 0 1.911 1.549 3.46 3.459 3.46z" fill="#fff" stroke="#505763" stroke-linecap="round" stroke-linejoin="round" stroke-width="2"/><path d="m353.949 310.885c1.911 0 3.46-1.549 3.46-3.46 0-1.91-1.549-3.459-3.46-3.459-1.91 0-3.459 1.549-3.459 3.459 0 1.911 1.549 3.46 3.459 3.46z" fill="#fff" stroke="#505763" stroke-linecap="round" stroke-linejoin="round" stroke-width="2"/><path d="m368.158 310.885c1.911 0 3.46-1.549 3.46-3.46 0-1.91-1.549-3.459-3.46-3.459-1.91 0-3.459 1.549-3.459 3.459 0 1.911 1.549 3.46 3.459 3.46z" fill="#fff" stroke="#505763" stroke-linecap="round" stroke-linejoin="round" stroke-width="2"/></svg>